<svg id="Layer_1" data-name="Layer 1" xmlns="http://www.w3.org/2000/svg" viewBox="0 0 296 296"><defs><style>.cls-1{fill:#a9b4c4;opacity:0.5;}</style></defs><path class="cls-1" d="M274,55.23l-.37-.52V22H149.18v0H102.78v0H22V274h1.74l.19,0h45.2v0H273.63V55.51Zm-2.36-3C266.38,46,249.8,28.76,223.78,24h47.86Zm-.4,2.67L240.31,79.21c-2.36-3-11.32-12.37-29.95-12.37-22.27,0-33.92,23.19-33.92,35.62,0,17.75,12.68,36.11,33.91,36.11,16.94,0,25.12-8.94,27.32-11.83l33.5,24.38c-4.66,5.38-26.48,28.24-60.82,28.24-36.48,0-77.28-33.09-77.28-77.38,0-41.12,36-77.19,77.1-77.19C245.91,24.79,267.52,50.11,271.24,54.85ZM24,24h78.13L24,266.64ZM67.68,272H24.38L104.23,24h42.22Zm2.1,0L148.55,24H197c-36.37,6.7-65.91,40.25-65.91,78,0,20.69,8.83,40.6,24.85,56.08,15.33,14.81,35.17,23.3,54.43,23.3,33.1,0,54.84-20.7,61.29-27.76V272ZM271.64,149,238,124.52l-.86-.62-.57.9c-.08.12-7.62,11.77-26.25,11.77-20,0-31.91-17.35-31.91-34.11,0-11.74,11-33.62,31.92-33.62,20.53,0,28.85,12.22,28.93,12.35l.6.9,31.75-25Z"/></svg>